<?xml version="1.0" standalone="no"?>
<!DOCTYPE svg PUBLIC "-//W3C//DTD SVG 20010904//EN"
 "http://www.w3.org/TR/2001/REC-SVG-20010904/DTD/svg10.dtd">
<svg version="1.0" xmlns="http://www.w3.org/2000/svg"
 width="40.000000pt" height="40.000000pt" viewBox="0 0 40.000000 40.000000"
 preserveAspectRatio="xMidYMid meet">

<g transform="translate(0.000000,40.000000) scale(0.100000,-0.100000)"
fill="#000000" stroke="none">
<path d="M0 200 l0 -200 96 0 96 0 -4 45 c-3 38 0 45 17 48 18 4 18 4 -2 6
-22 1 -23 5 -23 76 0 73 -1 75 -25 75 -18 0 -25 5 -25 20 0 18 7 20 68 22 l67
1 -50 7 c-27 4 -44 8 -37 8 7 1 12 19 12 47 l0 45 -95 0 -95 0 0 -200z"/>
</g>
</svg>
